<svg width="16" height="19" viewBox="0 0 16 19" fill="none" xmlns="http://www.w3.org/2000/svg">
<path d="M7.85919 5.45914C7.10869 5.45914 5.94695 4.60583 4.72353 4.63667C3.10943 4.65723 1.62898 5.57223 0.796234 7.02183C-0.879547 9.93132 0.364438 14.2287 1.9991 16.5933C2.801 17.7448 3.74684 19.0402 5.00111 18.999C6.20397 18.9476 6.65633 18.2177 8.11621 18.2177C9.56582 18.2177 9.97705 18.999 11.2519 18.9682C12.5473 18.9476 13.3697 17.7962 14.1614 16.6344C15.0764 15.2979 15.4568 14.0025 15.4773 13.9306C15.4465 13.9203 12.9585 12.9642 12.9277 10.0855C12.9071 7.67981 14.8913 6.52835 14.9838 6.47695C13.8529 4.82173 12.1155 4.63667 11.5089 4.59555C9.92565 4.47218 8.59941 5.45914 7.85919 5.45914ZM10.5322 3.03286C11.2005 2.23095 11.6426 1.11033 11.5192 0C10.5631 0.0411235 9.4116 0.637414 8.72278 1.43932C8.10593 2.1487 7.57133 3.28988 7.71526 4.37965C8.77419 4.4619 9.86396 3.83476 10.5322 3.03286Z" fill="#D6D6D6"/>
</svg>
