<svg width="17" height="19" viewBox="0 0 17 19" fill="none" xmlns="http://www.w3.org/2000/svg">
<path d="M13.8643 3.70149H12.1547C12.0694 2.69205 11.6082 1.75145 10.8623 1.06593C10.1165 0.380424 9.14036 0 8.12734 0C7.11431 0 6.13821 0.380424 5.39236 1.06593C4.6465 1.75145 4.18527 2.69205 4.1 3.70149H2.39039C1.75642 3.70149 1.14842 3.95333 0.70013 4.40162C0.251844 4.8499 0 5.45791 0 6.09188L0 16.6096C0 17.2436 0.251844 17.8516 0.70013 18.2999C1.14842 18.7482 1.75642 19 2.39039 19H13.8643C14.4983 19 15.1063 18.7482 15.5545 18.2999C16.0028 17.8516 16.2547 17.2436 16.2547 16.6096V6.09188C16.2547 5.45791 16.0028 4.8499 15.5545 4.40162C15.1063 3.95333 14.4983 3.70149 13.8643 3.70149V3.70149ZM8.12734 0.952535C8.88714 0.954891 9.61963 1.23613 10.1858 1.74288C10.7519 2.24962 11.1123 2.94659 11.1985 3.70149H5.05616C5.14237 2.94659 5.50276 2.24962 6.0689 1.74288C6.63504 1.23613 7.36753 0.954891 8.12734 0.952535ZM15.2985 16.6096C15.2985 16.99 15.1474 17.3548 14.8784 17.6238C14.6095 17.8927 14.2447 18.0438 13.8643 18.0438H2.39039C2.01001 18.0438 1.64521 17.8927 1.37624 17.6238C1.10726 17.3548 0.956157 16.99 0.956157 16.6096V6.09188C0.956157 5.7115 1.10726 5.34669 1.37624 5.07772C1.64521 4.80875 2.01001 4.65764 2.39039 4.65764H13.8643C14.2447 4.65764 14.6095 4.80875 14.8784 5.07772C15.1474 5.34669 15.2985 5.7115 15.2985 6.09188V16.6096Z" fill="#D6D6D6"/>
</svg>
