<svg width="20" height="19" viewBox="0 0 20 19" fill="none" xmlns="http://www.w3.org/2000/svg">
<path d="M18.8085 17.9549L13.5835 12.7277C14.8789 11.2112 15.5367 9.25194 15.419 7.26094C15.3014 5.26994 14.4173 3.40185 12.9523 2.04844C11.4873 0.695034 9.55516 -0.0385418 7.56109 0.00156176C5.56702 0.0416654 3.66593 0.852329 2.25653 2.26354C0.847128 3.67476 0.0389072 5.57689 0.00136839 7.57101C-0.0361704 9.56513 0.699889 11.4963 2.05518 12.9596C3.41047 14.4229 5.2797 15.3045 7.27085 15.4196C9.262 15.5347 11.2204 14.8744 12.7353 13.5771L17.9591 18.8042C18.0138 18.8642 18.0801 18.9124 18.154 18.9461C18.2279 18.9797 18.3078 18.998 18.389 18.9998C18.4701 19.0017 18.5508 18.9871 18.6261 18.9569C18.7015 18.9267 18.7699 18.8815 18.8273 18.8241C18.8847 18.7667 18.9299 18.6983 18.9601 18.623C18.9903 18.5476 19.0049 18.4669 19.003 18.3858C19.0012 18.3046 18.9829 18.2247 18.9492 18.1508C18.9156 18.077 18.8674 18.0107 18.8074 17.956L18.8085 17.9549ZM1.24826 7.73315C1.24999 6.44965 1.63216 5.19548 2.34649 4.12913C3.06082 3.06279 4.07523 2.23214 5.26151 1.74216C6.4478 1.25219 7.75272 1.12488 9.01134 1.37634C10.27 1.62779 11.4258 2.24672 12.3327 3.1549C13.2397 4.06307 13.8571 5.21973 14.1068 6.47869C14.3566 7.73765 14.2275 9.04239 13.736 10.228C13.2444 11.4136 12.4124 12.4269 11.3451 13.1398C10.2778 13.8527 9.02309 14.2332 7.7396 14.2332C6.01745 14.23 4.36688 13.5439 3.14995 12.3253C1.93303 11.1068 1.24912 9.45529 1.24826 7.73315V7.73315Z" fill="#D6D6D6"/>
</svg>
